<svg version="1" xmlns="http://www.w3.org/2000/svg" width="1117.333" height="1117.333" viewBox="0 0 838.000000 838.000000"><path d="M90 492.5V669h48.9l.4-81.7c.3-89.5.1-85.6 6.3-98 3.5-6.8 13.4-16.2 20.8-19.7 3.1-1.5 9.2-3.2 13.5-3.8 24.7-3.6 45.5 8.9 53.4 32.1 2.2 6.6 2.2 6.8 2.5 88.8l.3 82.3H285v-88.9c0-97.1 0-96.4-5.9-113.1-4-11.4-8.6-18.4-17.7-27.5-23.6-23.4-57.3-30.7-88.4-19.1-10.6 3.9-18.5 9.1-27.2 17.8l-6.8 6.7V316H90v176.5zM404.5 420.2c.4 1.3 17.9 57.6 38.9 125.3l38.3 123 21.9.3 21.9.2 25.4-87.5c14-48.1 25.8-87.2 26.2-86.8.4.5 11.8 39 25.4 85.8 13.5 46.7 24.8 85.8 25.1 86.8.5 1.6 2.2 1.7 22.6 1.5l22-.3L709.6 548c20.6-66.3 38.1-122.6 38.9-125.3l1.4-4.7h-52.4l-22.9 86.8c-12.6 47.7-23.2 87.3-23.5 88-.6 1-17.7-52-52.8-164.1l-3.4-10.7h-35.8l-4.4 13.7c-2.4 7.6-14.9 47.2-27.8 88-12.8 40.8-23.5 74-23.8 73.7-.3-.2-10.9-39.7-23.7-87.7l-23.2-87.2-26.1-.3-26.1-.2.5 2.2zM345 644v25h51v-50h-51v25z"/></svg>